<?xml version="1.0" encoding="iso-8859-1"?>
<!-- Generator: Adobe Illustrator 19.0.0, SVG Export Plug-In . SVG Version: 6.00 Build 0)  -->
<svg version="1.1" id="Layer_1" xmlns="http://www.w3.org/2000/svg" xmlns:xlink="http://www.w3.org/1999/xlink" x="0px" y="0px"
	 viewBox="0 0 504 504" style="enable-background:new 0 0 504 504;" xml:space="preserve">
<circle style="fill:#324A5E;" cx="252" cy="252" r="252"/>
<polygon style="fill:#84DBFF;" points="419.1,204.1 363.6,138.5 321.7,138.5 357.4,204.1 "/>
<polygon style="fill:#54C0EB;" points="246.4,408 419.1,204.1 357.4,204.1 "/>
<polygon style="fill:#84DBFF;" points="171.1,138.5 129.2,138.5 73.7,204.1 135.4,204.1 "/>
<polygon style="fill:#54C0EB;" points="73.7,204.1 246.4,408 246.4,408 135.4,204.1 "/>
<polygon style="fill:#84DBFF;" points="292.5,204.1 246.4,408 246.4,408 357.4,204.1 "/>
<g>
	<polygon style="fill:#54C0EB;" points="357.4,204.1 321.7,138.5 277.7,138.5 292.5,204.1 	"/>
	<polygon style="fill:#54C0EB;" points="200.3,204.1 215.2,138.5 171.1,138.5 135.4,204.1 	"/>
</g>
<polygon style="fill:#84DBFF;" points="200.3,204.1 135.4,204.1 246.4,408 246.4,408 "/>
<polygon style="fill:#54C0EB;" points="200.3,204.1 246.4,408 246.4,408 292.5,204.1 "/>
<polygon style="fill:#84DBFF;" points="292.5,204.1 277.7,138.5 215.2,138.5 200.3,204.1 "/>
<g>
</g>
<g>
</g>
<g>
</g>
<g>
</g>
<g>
</g>
<g>
</g>
<g>
</g>
<g>
</g>
<g>
</g>
<g>
</g>
<g>
</g>
<g>
</g>
<g>
</g>
<g>
</g>
<g>
</g>
</svg>
