<?xml version="1.0" encoding="iso-8859-1"?>
<!-- Generator: Adobe Illustrator 19.0.0, SVG Export Plug-In . SVG Version: 6.00 Build 0)  -->
<svg version="1.1" id="Layer_1" xmlns="http://www.w3.org/2000/svg" xmlns:xlink="http://www.w3.org/1999/xlink" x="0px" y="0px"
	 viewBox="0 0 297 297" style="enable-background:new 0 0 297 297;" xml:space="preserve">
<g>
	<g>
		<g>
			<g>
				<circle style="fill:#345065;" cx="148.5" cy="148.5" r="148.5"/>
			</g>
		</g>
	</g>
	<path style="fill:#1D3747;" d="M295.086,124.662l-78.419-78.419c-10.94,8.273-24.825,12.135-33.167,23.257c-24,30-39,62-53,97
		c-1,3-4,6-5,9c-6.836,19.532-9.644,42.145-16.435,60.745l59.419,59.412C241.046,285.896,297,223.736,297,148.5
		C297,140.385,296.339,132.424,295.086,124.662z"/>
	<g>
		<circle style="fill:#82D9C8;" cx="148.97" cy="196.279" r="56.478"/>
	</g>
	<g>
		<circle style="fill:#FFFFFF;" cx="148.97" cy="196.279" r="37.652"/>
	</g>
	<g>
		<polygon style="fill:#759AAC;" points="130.144,120.976 167.796,120.976 216.667,46.243 179.015,46.243 		"/>
	</g>
	<g>
		<polygon style="fill:#3DBCE5;" points="160.189,120.976 122.537,120.976 73.666,46.243 111.318,46.243 		"/>
	</g>
	<g>
		<path style="fill:#0EA6CB;" d="M116.88,141.085h64.179c5.908,0,10.696-4.789,10.696-10.697l0,0
			c0-5.908-4.789-10.696-10.696-10.696H116.88c-5.908,0-10.696,4.789-10.696,10.696l0,0
			C106.184,136.296,110.973,141.085,116.88,141.085z"/>
	</g>
</g>
<g>
</g>
<g>
</g>
<g>
</g>
<g>
</g>
<g>
</g>
<g>
</g>
<g>
</g>
<g>
</g>
<g>
</g>
<g>
</g>
<g>
</g>
<g>
</g>
<g>
</g>
<g>
</g>
<g>
</g>
</svg>
