<?xml version="1.0" encoding="UTF-8" standalone="no"?>
<!-- Created with Inkscape (http://www.inkscape.org/) -->

<svg
   width="210mm"
   height="297mm"
   viewBox="0 0 210 297"
   version="1.1"
   id="svg5"
   sodipodi:docname="or.svg"
   inkscape:version="1.1.2 (b8e25be833, 2022-02-05)"
   xmlns:inkscape="http://www.inkscape.org/namespaces/inkscape"
   xmlns:sodipodi="http://sodipodi.sourceforge.net/DTD/sodipodi-0.dtd"
   xmlns="http://www.w3.org/2000/svg"
   xmlns:svg="http://www.w3.org/2000/svg">
  <sodipodi:namedview
     id="namedview7"
     pagecolor="#ffffff"
     bordercolor="#666666"
     borderopacity="1.0"
     inkscape:pageshadow="2"
     inkscape:pageopacity="0.0"
     inkscape:pagecheckerboard="0"
     inkscape:document-units="mm"
     showgrid="false"
     inkscape:zoom="1.4275405"
     inkscape:cx="314.17673"
     inkscape:cy="413.29826"
     inkscape:window-width="2560"
     inkscape:window-height="1369"
     inkscape:window-x="-8"
     inkscape:window-y="-8"
     inkscape:window-maximized="1"
     inkscape:current-layer="layer8">
    <inkscape:grid
       type="xygrid"
       id="grid28865" />
  </sodipodi:namedview>
  <defs
     id="defs2" />
  <g
     inkscape:groupmode="layer"
     id="layer9"
     inkscape:label="ruban derriere"
     style="opacity:0.7">
    <path
       style="fill:#ab6f14;stroke:none;stroke-width:0.478411px;stroke-linecap:butt;stroke-linejoin:miter;stroke-opacity:1;fill-opacity:1"
       d="m 60.797153,65.050967 c 1.301219,10.351582 1.686569,19.864988 0.17372,28.496128 -2.011028,11.069005 -6.705906,23.303925 -12.175649,31.958645 -4.419057,6.58603 -6.757742,9.28727 -14.189466,12.44977 3.18772,1.03883 5.912304,1.28055 8.834398,-0.33617 -0.391998,2.62134 -0.988855,4.06855 -3.711841,7.68237 9.948915,-2.86462 15.284451,-9.6306 20.390316,-17.02983 5.105863,-7.39923 7.206835,-12.94255 9.451765,-25.06673 2.24493,-12.12418 2.643823,-29.209111 -2.115636,-36.607251 -2.274957,-0.64948 -4.427936,-0.47546 -6.657607,-1.546932 z"
       id="path163030"
       sodipodi:nodetypes="cccccczzcc" />
    <path
       style="fill:#ab6f14;stroke:none;stroke-width:0.482556px;stroke-linecap:butt;stroke-linejoin:miter;stroke-opacity:1;fill-opacity:1"
       d="m 139.64995,65.004446 c -1.32386,10.351582 -1.71591,19.864988 -0.17674,28.496134 2.04603,11.069 6.82261,23.30392 12.38754,31.95864 4.49596,6.58603 6.87535,9.28727 14.4364,12.44977 -3.24319,1.03883 -6.01519,1.28055 -8.98813,-0.33617 0.3988,2.62134 1.00605,4.06855 3.77643,7.68237 -10.12205,-2.86462 -15.55045,-9.6306 -20.74516,-17.02983 -5.19473,-7.39923 -7.33225,-12.94255 -9.61625,-25.06673 -2.284,-12.12418 -2.68983,-29.209112 2.15244,-36.607252 2.31456,-0.64948 4.505,-0.47546 6.77347,-1.546932 z"
       id="path163030-1"
       sodipodi:nodetypes="cccccczzcc" />
  </g>
  <g
     inkscape:groupmode="layer"
     id="layer2"
     inkscape:label="porteur"
     style="display:inline">
    <rect
       style="fill:#ecd454;fill-opacity:1;stroke:none;stroke-width:0.995651;stroke-linejoin:round;stroke-miterlimit:4;stroke-dasharray:none;stroke-opacity:1"
       id="rect28516"
       width="87.3125"
       height="3.4307394"
       x="56.885418"
       y="66.145836" />
  </g>
  <g
     inkscape:groupmode="layer"
     id="layer7"
     inkscape:label="porteur 2"
     style="display:inline">
    <ellipse
       style="fill:#ecd454;fill-opacity:1;stroke:none;stroke-width:1.012;stroke-linejoin:round;stroke-miterlimit:4;stroke-dasharray:none;stroke-opacity:1"
       id="path106707"
       cx="56.602955"
       cy="67.428421"
       rx="2.6760809"
       ry="4.2394123" />
    <ellipse
       style="fill:#ecd454;fill-opacity:1;stroke:none;stroke-width:1.012;stroke-linejoin:round;stroke-miterlimit:4;stroke-dasharray:none;stroke-opacity:1"
       id="path106707-0-0"
       cx="144.23705"
       cy="67.624924"
       rx="2.6760809"
       ry="4.2394123"
       inkscape:transform-center-x="9.2928823"
       inkscape:transform-center-y="-4.5056399" />
  </g>
  <g
     inkscape:groupmode="layer"
     id="layer3"
     inkscape:label="porteur 1"
     style="display:inline">
    <rect
       style="fill:#ecd454;fill-opacity:1;stroke:none;stroke-width:1.07289;stroke-linejoin:round;stroke-miterlimit:4;stroke-dasharray:none;stroke-opacity:1"
       id="rect28783"
       width="5.3655319"
       height="13.053588"
       x="97.821968"
       y="55.738079" />
  </g>
  <g
     inkscape:groupmode="layer"
     id="layer4"
     inkscape:label="l"
     style="display:inline">
    <path
       style="fill:#ecd454;fill-opacity:1;stroke:none;stroke-width:0.264583px;stroke-linecap:butt;stroke-linejoin:miter;stroke-opacity:1"
       d="m 106.54454,40.325517 c -0.59366,0.05995 -0.53082,-1.194991 -1.41094,-2.298132 -0.88011,-1.103141 -1.87812,-2.355221 -4.82276,-3.129026 -2.944648,-0.773805 -6.572635,0.92843 -7.798588,3.075424 -1.225953,2.146994 -0.476871,4.774663 1.356847,5.552997 1.833717,0.778334 6.954421,1.326417 9.235041,3.323292 2.28062,1.996875 3.18996,3.828082 1.69733,7.514464 -1.49262,3.686381 -5.869984,5.166805 -9.258415,4.809047 -3.388431,-0.357758 -6.177213,-1.303851 -8.366773,-3.261367 -2.189561,-1.957517 -2.728674,-5.260108 -1.600812,-6.093889 1.167442,-0.678895 3.226148,-1.658587 4.113213,-2.108358 1.054275,-0.508368 0.02136,0.772833 0.241569,1.600867 0.22021,0.828034 0.559478,1.351217 1.405274,2.295099 0.845796,0.943883 3.279457,2.368399 5.502672,2.20916 2.223214,-0.159238 4.236662,-1.156942 2.605595,-3.965822 -1.631061,-2.808879 -4.981823,-3.140352 -8.204082,-4.613555 -4.275177,-1.941262 -5.943406,-5.540013 -3.7251,-9.847521 2.218306,-4.307508 12.687539,-7.413629 18.019179,-2.620488 1.3072,1.195659 1.95657,2.827694 2.33899,4.087292 0.10499,1.578516 -0.60199,3.010575 -1.32824,3.470516 z"
       id="path35931"
       sodipodi:nodetypes="czzzzzzzzcczzzzczccc" />
  </g>
  <g
     inkscape:groupmode="layer"
     id="layer5"
     inkscape:label="l 1"
     style="display:inline">
    <path
       id="path48627"
       style="fill:#ecd454;fill-opacity:1;stroke:none;stroke-width:0.249438px;stroke-linecap:butt;stroke-linejoin:miter;stroke-opacity:1"
       d="m 106.39667,54.975861 c -0.16859,0.75088 -0.37042,2.115004 -0.29059,3.0576 1.65251,1.118092 4.18595,1.797044 5.58365,0.291694 1.3977,-1.50535 0.99715,-3.428365 0.33918,-4.582057 -0.65797,-1.153691 -2.3794,-1.479976 -3.95447,-1.672528 -0.87662,0.797378 -1.50918,2.154411 -1.67777,2.905291 z M 110.978,42.972769 c -0.49295,0.673274 -0.74453,0.957054 -1.3779,2.316056 -0.63338,1.359001 -0.54282,2.100196 -0.57839,3.298482 2.86829,1.891937 5.2254,0.315584 5.86925,-2.381571 0.45566,-2.245573 -0.8869,-3.566466 -3.91296,-3.232967 z m -7.23269,15.85011 c -0.0855,-0.304657 0.85096,-5.687866 2.4927,-10.330467 1.64175,-4.642598 3.33275,-8.033664 3.58872,-8.18007 3.95198,-0.348437 6.54562,0.408108 7.43188,2.673479 0.88625,2.265374 0.0354,6.771863 -4.44472,8.176934 2.41266,1.659544 3.28423,3.92565 2.95689,6.891904 -0.32734,2.966255 -4.70938,4.497253 -7.95127,3.267487 -3.2419,-1.229766 -3.90311,-1.88995 -4.0742,-2.499267 z"
       sodipodi:nodetypes="scsscsczccccscscssc" />
  </g>
  <g
     inkscape:label="drap 2"
     inkscape:groupmode="layer"
     id="g125581"
     style="display:inline">
    <path
       id="path125579"
       style="fill:#c29045;fill-opacity:1;stroke:#dcb357;stroke-width:1.10907;stroke-linejoin:round;stroke-miterlimit:4;stroke-dasharray:none;stroke-opacity:1"
       d="M 59.531835,66.145842 V 185.21797 h -5.85e-4 v 0.001 l 5.85e-4,-5.6e-4 h 5.86e-4 L 100.52193,222.25 141.55208,185.22963 v -0.0113 0 -119.072668 z"
       sodipodi:nodetypes="cccccccccccc" />
  </g>
  <g
     inkscape:label="drap 1"
     inkscape:groupmode="layer"
     id="layer1"
     style="display:inline">
    <path
       id="rect9464"
       style="fill:#d5bb56;fill-opacity:1;stroke:#e6d37b;stroke-width:1.00838;stroke-linejoin:round;stroke-miterlimit:4;stroke-dasharray:none;stroke-opacity:1"
       d="M 63.499999,66.145833 V 175.12703 h -5.29e-4 v 0.001 l 5.29e-4,-5.4e-4 h 5.29e-4 l 37.023052,33.89328 37.05975,-33.88301 v -0.01 0 -108.981698 z"
       sodipodi:nodetypes="cccccccccccc" />
  </g>
  <g
     inkscape:groupmode="layer"
     id="layer6"
     inkscape:label="etoiles"
     style="display:inline">
    <path
       sodipodi:type="star"
       style="fill:#f7e9af;fill-opacity:1;stroke:none;stroke-width:3.77953;stroke-linejoin:round;stroke-miterlimit:4;stroke-dasharray:none;stroke-opacity:1"
       id="path70017"
       inkscape:flatsided="false"
       sodipodi:sides="5"
       sodipodi:cx="48.716976"
       sodipodi:cy="294.90009"
       sodipodi:r1="93.030006"
       sodipodi:r2="46.515003"
       sodipodi:arg1="0.94405343"
       sodipodi:arg2="1.572372"
       inkscape:rounded="0"
       inkscape:randomized="0"
       d="m 103.27999,370.24901 -54.636306,-28.83398 -54.7268924,28.66166 10.539194,-60.8724 -44.1703976,-43.19143 61.149884,-8.78724 27.428085,-55.35543 27.253513,55.44159 61.12189,8.9799 -44.30629,43.05202 z"
       transform="matrix(0.22693458,0,0,0.22387683,103.26453,53.776363)"
       inkscape:transform-center-x="-0.010279206"
       inkscape:transform-center-y="-1.9791794" />
    <path
       sodipodi:type="star"
       style="display:inline;fill:#f7e9af;fill-opacity:1;stroke:none;stroke-width:3.77953;stroke-linejoin:round;stroke-miterlimit:4;stroke-dasharray:none;stroke-opacity:1"
       id="path70017-9"
       inkscape:flatsided="false"
       sodipodi:sides="5"
       sodipodi:cx="48.716976"
       sodipodi:cy="294.90009"
       sodipodi:r1="93.030006"
       sodipodi:r2="46.515003"
       sodipodi:arg1="0.94405343"
       sodipodi:arg2="1.572372"
       inkscape:rounded="0"
       inkscape:randomized="0"
       transform="matrix(0.16440713,0,0,0.16055252,80.638048,43.08079)"
       inkscape:transform-center-x="-0.0074470005"
       inkscape:transform-center-y="-1.4193616"
       d="m 103.27999,370.24901 -54.636306,-28.83398 -54.7268924,28.66166 10.539194,-60.8724 -44.1703976,-43.19143 61.149884,-8.78724 27.428085,-55.35543 27.253513,55.44159 61.12189,8.9799 -44.30629,43.05202 z" />
    <path
       sodipodi:type="star"
       style="display:inline;fill:#f7e9af;fill-opacity:1;stroke:none;stroke-width:3.77953;stroke-linejoin:round;stroke-miterlimit:4;stroke-dasharray:none;stroke-opacity:1"
       id="path70017-3"
       inkscape:flatsided="false"
       sodipodi:sides="5"
       sodipodi:cx="48.716976"
       sodipodi:cy="294.90009"
       sodipodi:r1="93.030006"
       sodipodi:r2="46.515003"
       sodipodi:arg1="0.94405343"
       sodipodi:arg2="1.572372"
       inkscape:rounded="0"
       inkscape:randomized="0"
       transform="matrix(0.26458333,0,0,0.26458333,76.873104,79.585533)"
       inkscape:transform-center-x="-0.01198439"
       inkscape:transform-center-y="-2.339046"
       d="m 103.27999,370.24901 -54.636306,-28.83398 -54.7268924,28.66166 10.539194,-60.8724 -44.1703976,-43.19143 61.149884,-8.78724 27.428085,-55.35543 27.253513,55.44159 61.12189,8.9799 -44.30629,43.05202 z" />
  </g>
  <g
     inkscape:groupmode="layer"
     id="layer8"
     inkscape:label="ruban"
     style="display:inline;opacity:0.7">
    <path
       style="fill:#ca9642;fill-opacity:1;stroke:none;stroke-width:0.264583px;stroke-linecap:butt;stroke-linejoin:miter;stroke-opacity:1"
       d="m 60.797153,65.050967 c 0,0 2.064083,-0.285063 3.161904,0.04473 10.980785,5.849204 25.671375,10.368503 35.006934,10.615374 10.563139,0.140164 21.930389,-3.796015 37.323779,-10.667515 1.22906,0.02033 2.22666,-0.07715 3.36018,-0.03911 -0.29758,1.792016 -4.10642,8.61896 -7.71356,11.583025 C 122.14797,84.18298 112.2422,87.177156 99.987058,87.801767 89.26189,87.485516 78.044149,84.747554 69.060654,78.387957 66.055963,76.220883 63.444675,73.829568 60.797153,65.050967 Z"
       id="path156287"
       sodipodi:nodetypes="cccccccccc" />
  </g>
</svg>
