<?xml version="1.0" encoding="iso-8859-1"?>
<!-- Generator: Adobe Illustrator 19.0.0, SVG Export Plug-In . SVG Version: 6.00 Build 0)  -->
<svg version="1.1" id="Layer_1" xmlns="http://www.w3.org/2000/svg" xmlns:xlink="http://www.w3.org/1999/xlink" x="0px" y="0px"
	 viewBox="0 0 512 512" style="enable-background:new 0 0 512 512;" xml:space="preserve">
<polyline style="fill:#FFAC00;" points="256.001,229.856 301.837,322.732 404.332,337.626 330.166,409.92 347.675,512 
	256.001,463.804 164.326,512 181.834,409.92 107.668,337.626 210.163,322.732 256.001,229.856 "/>
<polygon style="fill:#DB6D00;" points="317.853,366.833 275.116,360.619 256.001,321.886 236.884,360.619 194.148,366.833 
	225.07,396.977 217.774,439.546 256.001,419.449 294.226,439.546 286.93,396.977 "/>
<polygon style="fill:#FFD68B;" points="256.001,463.804 256.001,229.856 210.163,322.732 107.668,337.626 181.834,409.92 
	164.326,512 "/>
<polygon style="fill:#FFAC00;" points="256.001,419.449 256.001,321.886 236.884,360.619 194.148,366.833 225.07,396.977 
	217.774,439.546 "/>
<polygon style="fill:#EE2712;" points="136.31,0 136.31,197.853 256.001,265.558 375.691,197.853 375.691,0 "/>
<polygon style="fill:#FF7565;" points="192.412,0 192.412,229.589 256.001,265.558 319.588,229.589 319.588,0 "/>
<g>
</g>
<g>
</g>
<g>
</g>
<g>
</g>
<g>
</g>
<g>
</g>
<g>
</g>
<g>
</g>
<g>
</g>
<g>
</g>
<g>
</g>
<g>
</g>
<g>
</g>
<g>
</g>
<g>
</g>
</svg>
