<?xml version="1.0" encoding="UTF-8" standalone="no"?>
<!-- Created with Inkscape (http://www.inkscape.org/) -->

<svg
   width="210mm"
   height="297mm"
   viewBox="0 0 210 297"
   version="1.1"
   id="svg5"
   sodipodi:docname="dimant.svg"
   inkscape:version="1.1.2 (b8e25be833, 2022-02-05)"
   xmlns:inkscape="http://www.inkscape.org/namespaces/inkscape"
   xmlns:sodipodi="http://sodipodi.sourceforge.net/DTD/sodipodi-0.dtd"
   xmlns:xlink="http://www.w3.org/1999/xlink"
   xmlns="http://www.w3.org/2000/svg"
   xmlns:svg="http://www.w3.org/2000/svg">
  <sodipodi:namedview
     id="namedview7"
     pagecolor="#ffffff"
     bordercolor="#666666"
     borderopacity="1.0"
     inkscape:pageshadow="2"
     inkscape:pageopacity="0.0"
     inkscape:pagecheckerboard="0"
     inkscape:document-units="mm"
     showgrid="false"
     inkscape:zoom="1.3249068"
     inkscape:cx="379.27195"
     inkscape:cy="449.84295"
     inkscape:window-width="2560"
     inkscape:window-height="1369"
     inkscape:window-x="-8"
     inkscape:window-y="-8"
     inkscape:window-maximized="1"
     inkscape:current-layer="layer2">
    <inkscape:grid
       type="xygrid"
       id="grid28865" />
  </sodipodi:namedview>
  <defs
     id="defs2">
    <linearGradient
       inkscape:collect="always"
       id="linearGradient273215">
      <stop
         style="stop-color:#a38ad6;stop-opacity:1;"
         offset="0"
         id="stop273211" />
      <stop
         style="stop-color:#a38ad6;stop-opacity:0;"
         offset="1"
         id="stop273213" />
    </linearGradient>
    <linearGradient
       inkscape:collect="always"
       xlink:href="#linearGradient273215"
       id="linearGradient273217"
       x1="96.25042"
       y1="124.21739"
       x2="108.15891"
       y2="139.20891"
       gradientUnits="userSpaceOnUse" />
  </defs>
  <g
     inkscape:groupmode="layer"
     id="layer9"
     inkscape:label="ruban derriere"
     style="opacity:0.7">
    <path
       style="fill:#6a3193;stroke:none;stroke-width:0.478411px;stroke-linecap:butt;stroke-linejoin:miter;stroke-opacity:1;fill-opacity:1"
       d="m 60.797153,65.050967 c 1.301219,10.351582 1.686569,19.864988 0.17372,28.496128 -2.011028,11.069005 -6.705906,23.303925 -12.175649,31.958645 -4.419057,6.58603 -6.757742,9.28727 -14.189466,12.44977 3.18772,1.03883 5.912304,1.28055 8.834398,-0.33617 -0.391998,2.62134 -0.988855,4.06855 -3.711841,7.68237 9.948915,-2.86462 15.284451,-9.6306 20.390316,-17.02983 5.105863,-7.39923 7.206835,-12.94255 9.451765,-25.06673 2.24493,-12.12418 2.643823,-29.209111 -2.115636,-36.607251 -2.274957,-0.64948 -4.427936,-0.47546 -6.657607,-1.546932 z"
       id="path163030"
       sodipodi:nodetypes="cccccczzcc" />
    <path
       style="fill:#6a3193;stroke:none;stroke-width:0.482556px;stroke-linecap:butt;stroke-linejoin:miter;stroke-opacity:1;fill-opacity:1"
       d="m 139.64995,65.004446 c -1.32386,10.351582 -1.71591,19.864988 -0.17674,28.496134 2.04603,11.069 6.82261,23.30392 12.38754,31.95864 4.49596,6.58603 6.87535,9.28727 14.4364,12.44977 -3.24319,1.03883 -6.01519,1.28055 -8.98813,-0.33617 0.3988,2.62134 1.00605,4.06855 3.77643,7.68237 -10.12205,-2.86462 -15.55045,-9.6306 -20.74516,-17.02983 -5.19473,-7.39923 -7.33225,-12.94255 -9.61625,-25.06673 -2.284,-12.12418 -2.68983,-29.209112 2.15244,-36.607252 2.31456,-0.64948 4.505,-0.47546 6.77347,-1.546932 z"
       id="path163030-1"
       sodipodi:nodetypes="cccccczzcc" />
  </g>
  <g
     inkscape:groupmode="layer"
     id="layer2"
     inkscape:label="porteur"
     style="display:inline">
    <path
       id="rect28516"
       style="fill:#e6dcf5;fill-opacity:1;stroke:none;stroke-width:3.76309;stroke-linejoin:round;stroke-miterlimit:4;stroke-dasharray:none;stroke-opacity:1"
       d="M 371.9668 114.70703 C 354.30334 114.75405 336.13477 123.3204 330.76367 133.75 C 322.37952 150.03035 328.6856 163.6317 344.84375 170.96875 C 357.02237 176.53676 369.68497 177.79001 375.84961 188.40625 C 382.01427 199.02249 374.40465 202.79464 366.00195 203.39648 C 357.59925 203.99833 348.40179 198.61431 345.20508 195.04688 C 342.00837 191.47945 340.72682 189.50067 339.89453 186.37109 C 339.06225 183.24152 342.96513 178.39892 338.98047 180.32031 C 335.62778 182.02023 327.84793 185.72316 323.43555 188.28906 C 319.17276 191.44036 321.20887 203.92378 329.48438 211.32227 C 337.75988 218.72075 348.30075 222.29628 361.10742 223.64844 C 363.85474 223.93851 366.7739 223.90607 369.7207 223.54297 L 369.7207 250 L 223.57227 250 A 10.114322 16.022976 0 0 0 213.93164 238.82422 A 10.114322 16.022976 0 0 0 203.81836 254.84766 A 10.114322 16.022976 0 0 0 213.93164 270.87109 A 10.114322 16.022976 0 0 0 222.64844 262.9668 L 536.16992 262.9668 A 10.114322 16.022976 0 0 0 545.14844 271.61328 A 10.114322 16.022976 0 0 0 555.26172 255.58984 A 10.114322 16.022976 0 0 0 545.14844 239.56641 A 10.114322 16.022976 0 0 0 535.67383 250 L 390 250 L 390 214.42969 C 391.67547 212.81636 393.15371 210.98392 394.375 208.93359 C 392.7527 216.36525 391.94574 221.74614 392.10742 222.32227 C 392.75406 224.6252 395.25301 227.1216 407.50586 231.76953 C 419.75867 236.41747 436.3214 230.63096 437.55859 219.41992 C 438.79578 208.20888 435.50153 199.64339 426.38281 193.37109 C 443.31555 188.06059 446.53125 171.02884 443.18164 162.4668 C 439.832 153.90476 430.03037 151.0444 415.09375 152.36133 C 414.1263 152.91467 407.73434 165.73247 401.5293 183.2793 C 400.54074 186.07479 399.61988 188.94041 398.77148 191.78906 C 398.21698 185.9835 394.90432 181.63979 389.68555 177.07031 C 381.06588 169.52307 361.71183 167.4515 354.78125 164.50977 C 347.85066 161.56803 345.01882 151.63806 349.65234 143.52344 C 354.28587 135.40881 367.99757 128.97382 379.12695 131.89844 C 390.2563 134.82305 394.02907 139.55526 397.35547 143.72461 C 400.68191 147.89396 400.44375 152.63869 402.6875 152.41211 C 405.43238 150.67375 408.1058 145.26097 407.70898 139.29492 C 406.26362 134.53424 403.80779 128.36473 398.86719 123.8457 C 391.62539 117.33533 381.87557 114.68065 371.9668 114.70703 z M 422.49219 162.22461 C 431.7724 162.12283 435.7951 166.94519 434.23438 174.63672 C 431.80093 184.83069 422.89156 190.78735 412.05078 183.63672 C 412.18522 179.10776 411.84245 176.3063 414.23633 171.16992 C 416.63017 166.03354 417.58219 164.96067 419.44531 162.41602 C 420.51754 162.29785 421.53217 162.23514 422.49219 162.22461 z M 408.4707 196.80273 C 414.42372 197.53049 420.9292 198.76264 423.41602 203.12305 C 425.90283 207.48346 427.41741 214.75189 422.13477 220.44141 C 416.85212 226.13092 407.27696 223.5657 401.03125 219.33984 C 400.72953 215.77728 401.49172 210.62117 402.12891 207.7832 C 402.7661 204.94523 405.15749 199.81645 408.4707 196.80273 z "
       transform="scale(0.26458333)" />
  </g>
  <g
     inkscape:groupmode="layer"
     id="layer7"
     inkscape:label="porteur 2"
     style="display:inline" />
  <g
     inkscape:groupmode="layer"
     id="layer3"
     inkscape:label="porteur 1"
     style="display:inline" />
  <g
     inkscape:groupmode="layer"
     id="layer4"
     inkscape:label="l"
     style="display:inline" />
  <g
     inkscape:groupmode="layer"
     id="layer5"
     inkscape:label="l 1"
     style="display:inline" />
  <g
     inkscape:label="drap 2"
     inkscape:groupmode="layer"
     id="g125581"
     style="display:inline">
    <path
       id="path125579"
       style="fill:#6140a5;fill-opacity:1;stroke:#7051a2;stroke-width:1.10907;stroke-linejoin:round;stroke-miterlimit:4;stroke-dasharray:none;stroke-opacity:1"
       d="M 59.531835,66.145842 V 185.21797 h -5.85e-4 v 0.001 l 5.85e-4,-5.6e-4 h 5.86e-4 L 100.52193,222.25 141.55208,185.22963 v -0.0113 0 -119.072668 z"
       sodipodi:nodetypes="cccccccccccc" />
  </g>
  <g
     inkscape:label="Copie de drap 2"
     inkscape:groupmode="layer"
     id="g254646"
     style="display:inline;opacity:0.695652">
    <path
       id="path254644"
       style="display:inline;fill:#8842de;fill-opacity:1;stroke:none;stroke-width:1.14005;stroke-linejoin:round;stroke-miterlimit:4;stroke-dasharray:none;stroke-opacity:1"
       d="M 139.96272,66.145317 61.4355,66.145832 V 197.55848 h 5.47e-4 l 8.413573,7.55871 v -4.03386 -55.5625 h 11.218096 v 55.5625 14.11283 l 19.631664,17.63717 19.63168,-17.63096 v -11.47321 -58.20833 h 11.21809 v 58.20833 1.39837 l 8.41357,-7.55613 v -0.0129 z M 61.4355,197.55848 h -5.49e-4 v 0.001 z" />
  </g>
  <g
     inkscape:label="drap 1"
     inkscape:groupmode="layer"
     id="layer1"
     style="display:inline">
    <path
       id="rect9464"
       style="fill:#9d7fc0;fill-opacity:1;stroke:#bea6d3;stroke-width:1.00838;stroke-linejoin:round;stroke-miterlimit:4;stroke-dasharray:none;stroke-opacity:1"
       d="m 63.500007,66.145842 -8e-6,108.981188 h -5.29e-4 v 0.001 l 5.29e-4,-5.4e-4 h 5.29e-4 l 37.023052,33.89328 37.05975,-33.88301 v -0.01 0 -108.981698 z"
       sodipodi:nodetypes="cccccccccccc" />
  </g>
  <g
     inkscape:groupmode="layer"
     id="layer6"
     inkscape:label="etoiles"
     style="display:inline">
    <path
       style="fill:#7a54c2;fill-opacity:1;stroke:none;stroke-width:0.264583px;stroke-linecap:butt;stroke-linejoin:miter;stroke-opacity:1"
       d="M 100.54167,95.249999 C 96.572917,117.73958 83.533841,122.67971 74.083333,127 c 9.450508,3.61721 22.489584,14.55208 26.289147,40.97094 C 103.1875,141.55208 118.53242,130.54299 127,127 c -9.26042,-3.96875 -23.8125,-9.26042 -26.45833,-31.750001"
       id="path256295"
       sodipodi:nodetypes="ccccc" />
    <path
       style="display:inline;fill:url(#linearGradient273217);fill-opacity:1;stroke:none;stroke-width:0.171373px;stroke-linecap:butt;stroke-linejoin:miter;stroke-opacity:1"
       d="M 100.54171,106.50759 C 97.96202,121.02304 89.486637,124.21155 83.34382,127 c 6.142817,2.33465 14.6182,9.39234 17.08791,26.44387 1.82976,-17.05153 11.80393,-24.15713 17.30785,-26.44387 -6.01926,-2.56156 -15.47809,-5.97696 -17.19787,-20.49241"
       id="path256295-8"
       sodipodi:nodetypes="ccccc" />
  </g>
  <g
     inkscape:groupmode="layer"
     id="layer10"
     inkscape:label="etoiles 1"
     style="display:inline;opacity:1">
    <path
       style="fill:#ba9fd6;fill-opacity:1;stroke:none;stroke-width:0.264583px;stroke-linecap:butt;stroke-linejoin:miter;stroke-opacity:1"
       d="m 74.083332,127 c 9.431362,-4.14001 22.660042,-9.88228 26.458338,-31.750001 4e-5,11.257591 0,0 4e-5,11.257591 -1.885559,10.67066 -6.459806,16.17482 -17.19789,20.49241 -9.260487,0 0,0 -9.260488,0 z"
       id="path261931"
       sodipodi:nodetypes="ccccc" />
  </g>
  <g
     inkscape:groupmode="layer"
     id="layer11"
     inkscape:label="etoiles 2"
     style="display:inline;opacity:1">
    <path
       style="fill:#6646b3;fill-opacity:1;stroke:none;stroke-width:0.264583px;stroke-linecap:butt;stroke-linejoin:miter;stroke-opacity:1"
       d="m 100.43173,153.44387 c -0.0593,14.52707 0,1.68779 -0.0593,14.52707 C 103.03984,144.12844 115.42004,131.95656 127,127 h -9.26042 c -8.55501,4.04977 -15.15202,11.12795 -17.30785,26.44387 z"
       id="path269394"
       sodipodi:nodetypes="ccccc" />
  </g>
  <g
     inkscape:groupmode="layer"
     id="layer14"
     inkscape:label="deco"
     style="display:inline">
    <path
       id="path202258"
       style="fill:#bea6d3;fill-opacity:1;stroke:none;stroke-width:0.999999px;stroke-linecap:butt;stroke-linejoin:miter;stroke-opacity:1"
       d="M 380.04688,669.74609 360,690.00001 l 20,20 20.00001,-20 z m -36.35411,86.39774 36.23888,33.85594 36.53899,-34.01934 c 0,0 -12.64623,-4.68581 -22.8992,-18.56972 C 383.31847,723.5268 380,710.00001 380,710.00001 c 0,0 -3.72654,13.43089 -14.96211,28.07626 -11.23557,14.64536 -21.34512,18.06756 -21.34512,18.06756 z"
       transform="scale(0.26458333)"
       sodipodi:nodetypes="cccccccczczc" />
    <path
       style="fill:#bea6d3;fill-opacity:1;stroke:none;stroke-width:0.264583px;stroke-linecap:butt;stroke-linejoin:miter;stroke-opacity:1"
       d="m 63.500528,175.12749 c 0.05895,-3.34661 -0.02951,-7.13425 -5.28e-4,-9.76291 5.696006,3.73066 6.658367,4.07837 14.552083,3.96875 -6.392632,3.94947 -7.194789,5.55069 -7.9375,11.90625 -2.460973,-2.13833 -4.79295,-4.59909 -6.614055,-6.11209 z"
       id="path209306"
       sodipodi:nodetypes="ccccc" />
    <path
       style="fill:#bea6d3;fill-opacity:1;stroke:none;stroke-width:0.264583px;stroke-linecap:butt;stroke-linejoin:miter;stroke-opacity:1"
       d="m 130.2974,181.59895 c 0.23565,-5.81759 -1.38747,-8.14517 -7.26615,-12.26562 8.28991,0.39118 11.39983,0.58654 14.55208,-2.64583 v 7.9375 c -3.96875,3.96875 -2.64583,2.64583 -7.28598,6.97395 z"
       id="path209308"
       sodipodi:nodetypes="cccccc" />
    <path
       style="fill:#bea6d3;fill-opacity:1;stroke:none;stroke-width:0.264583px;stroke-linecap:butt;stroke-linejoin:miter;stroke-opacity:1"
       d="m 63.499999,66.145832 c -0.10258,5.321079 -0.179788,10.070891 10e-7,15.875001 3.716657,-2.372594 10.037009,0.290008 19.84375,6.614584 -2.521514,-7.618804 -7.911103,-15.740203 -4.66057,-22.332225 -4.930367,-0.140164 -8.018598,0.0863 -15.183173,-0.15735 z"
       id="path232602"
       sodipodi:nodetypes="cccccc" />
    <path
       style="fill:#bea6d3;fill-opacity:1;stroke:none;stroke-width:0.264583px;stroke-linecap:butt;stroke-linejoin:miter;stroke-opacity:1"
       d="m 137.58333,82.020833 c -0.22507,-10.554724 0.0868,-8.354496 -5e-5,-15.874771 -7.03021,0.288007 -6.74382,-0.09088 -15.87495,-2.29e-4 3.6643,7.418526 -1.00988,15.268469 -5.29166,22.489584 8.10194,-3.970603 15.53588,-10.181116 21.16666,-6.614584 z"
       id="path232604"
       sodipodi:nodetypes="ccccc" />
  </g>
  <g
     inkscape:groupmode="layer"
     id="layer8"
     inkscape:label="ruban"
     style="display:inline;opacity:0.7">
    <path
       style="fill:#b689d8;fill-opacity:1;stroke:none;stroke-width:0.264583px;stroke-linecap:butt;stroke-linejoin:miter;stroke-opacity:1"
       d="m 60.797153,65.050967 c 0,0 2.064083,-0.285063 3.161904,0.04473 10.980785,5.849204 25.671375,10.368503 35.006934,10.615374 10.563139,0.140164 21.930389,-3.796015 37.323779,-10.667515 1.22906,0.02033 2.22666,-0.07715 3.36018,-0.03911 -0.29758,1.792016 -4.10642,8.61896 -7.71356,11.583025 C 122.14797,84.18298 112.2422,87.177156 99.987058,87.801767 89.26189,87.485516 78.044149,84.747554 69.060654,78.387957 66.055963,76.220883 63.444675,73.829568 60.797153,65.050967 Z"
       id="path156287"
       sodipodi:nodetypes="cccccccccc" />
  </g>
</svg>
